<svg viewBox="0 0 230 230" xmlns="http://www.w3.org/2000/svg">
  <defs></defs>
  <g id="SvgjsG1007" featurekey="symbolContainer" transform="matrix(4.235, 0, 0, 4.235, 8.211747, 8.600168)" fill="#355c7d">
    <path xmlns="http://www.w3.org/2000/svg" d="M24.95 0a25 25 0 1 0 25 25 25 25 0 0 0-25-25zm0 46.91a22 22 0 1 1 22-22 22 22 0 0 1-22 21.99z"></path>
    <path xmlns="http://www.w3.org/2000/svg" d="M24.95 3.65a21.3 21.3 0 1 0 21.3 21.3 21.33 21.33 0 0 0-21.3-21.3z"></path>
  </g>
  <g id="SvgjsG1008" featurekey="monogramFeature-0" transform="matrix(2.071496, 0, 0, 2.071496, 72.417618, 40.674019)" fill="#ffffff">
    <path d="M21.6 64.44 c-0.12 0 -0.3 -0.06 -0.3 -0.24 c0 -0.12 -0.06 -0.24 -0.12 -0.24 s-0.18 -0.12 -0.24 -0.3 s-0.06 -0.24 -0.12 -0.24 l-0.12 0.06 l-0.18 0.06 c-0.12 0 -0.3 -0.06 -0.66 -0.24 c-0.6 -0.3 -0.72 -0.42 -1.26 -1.26 c-0.48 -0.84 -0.6 -1.32 -0.6 -2.22 l0 -0.72 c0 -0.48 0 -1.02 0.06 -1.2 c0 -0.12 0.06 -1.08 0.18 -2.1 l0.24 -2.52 c0 -0.84 0.3 -2.94 0.42 -3.06 l0.06 0 l0.06 0.12 c0 0.12 0 0.18 0.06 0.18 s0.18 -0.18 0.24 -0.42 l0.06 -0.3 l-0.06 -0.06 l-0.12 0.12 c-0.12 0.12 -0.24 0.18 -0.3 0.18 l0 -0.12 l0.12 -1.14 l0.36 -2.34 c0.12 -0.66 0.24 -1.2 0.3 -1.2 l0.06 -0.12 l-0.06 -0.18 c-0.06 -0.12 -0.06 -0.24 -0.06 -0.36 c0 -0.24 0.12 -0.48 0.3 -0.48 c0.12 0 0.18 -0.06 0.18 -0.06 l0 -0.06 c-0.06 -0.06 -0.18 -0.06 -0.24 -0.06 l-0.06 0 l-0.06 -0.12 c0 -0.06 0 -0.12 -0.06 -0.12 l-0.24 0.3 c-0.12 0.18 -0.24 0.3 -0.36 0.3 l-0.12 -0.12 l0.06 -0.06 s0 -0.12 -0.12 -0.24 c-0.06 -0.12 -0.18 -0.24 -0.24 -0.24 s-0.06 0 -0.06 0.06 l0 0.18 c0 0.24 -0.3 0.72 -0.48 0.72 l-0.12 0.06 l0 0.06 c0 0.06 -0.06 0.12 -0.18 0.12 c-0.18 0 -0.24 0.06 -0.24 0.12 s0.06 0.12 0.18 0.18 l0.12 0.06 l-0.12 0.12 l-0.06 0.18 l0.06 0.24 c0 0.06 0 0.06 -0.06 0.06 l-0.36 -0.06 l-0.06 0.06 c0.06 0.12 0.18 0.18 0.48 0.18 l0.06 0 c0.06 0 0.12 0 0.12 0.12 l-0.12 0.18 l-0.12 0.06 c-0.06 0 -0.12 0 -0.18 -0.12 l-0.18 -0.12 c-0.18 0 -0.42 0.24 -0.66 0.6 c-0.3 0.54 -1.08 1.44 -1.2 1.44 l-0.06 0.06 l0.12 0.12 l0.18 0.3 c0 0.06 -0.12 0.12 -0.3 0.12 s-0.36 0.18 -0.36 0.3 c0 0 0 0.06 0.06 0.06 l0.12 0.12 l-0.06 0.24 c-0.06 0.12 -0.12 0.18 -0.18 0.18 l-0.3 -0.12 c-0.06 0 -0.12 0.06 -0.24 0.18 c-0.06 0.12 -0.18 0.24 -0.3 0.24 s-0.18 0.12 -0.18 0.3 s0.06 0.3 0.18 0.36 l0.12 0.06 l0.18 -0.12 l0.06 0.06 c0 0.06 -0.6 0.42 -0.72 0.42 l-0.06 -0.06 l0.06 -0.06 l0 -0.12 l-0.06 0.06 c-0.06 0.06 -0.12 0.18 -0.12 0.3 c0 0.18 0 0.24 -0.12 0.24 s-0.42 0.3 -0.42 0.48 c0 0.06 0 0.12 -0.06 0.12 s-0.12 0.18 -0.24 0.36 c-0.06 0.18 -0.12 0.3 -0.24 0.3 l-0.12 0 c-0.18 0 -0.66 0.54 -0.66 0.9 l0 0.06 c0 0.12 0 0.24 -0.06 0.3 c-0.06 0 -0.06 0 -0.06 -0.06 c0 -0.24 -0.06 -0.3 -0.12 -0.3 s-0.12 0 -0.18 0.12 c-0.12 0.18 -0.18 0.24 -0.3 0.24 l-0.12 0 c-0.12 -0.06 -0.24 -0.12 -0.24 -0.18 s0.18 -0.12 0.42 -0.18 c0.12 0 0.3 -0.12 0.36 -0.24 l0.06 -0.12 c0 -0.06 -0.06 -0.06 -0.12 -0.06 c-0.18 0 -0.42 0.12 -0.66 0.42 c-0.24 0.18 -0.42 0.36 -0.48 0.36 l-0.12 -0.06 l-0.3 0.12 c0 0.06 0.12 0.12 0.24 0.18 s0.24 0.06 0.3 0.06 s0.18 0 0.24 -0.06 l0.24 -0.12 c0.06 0 0.06 0 0.06 0.06 c0 0.12 -0.12 0.24 -0.3 0.3 l-0.24 0.06 l-0.12 -0.06 l-0.3 0.12 c-0.18 0.12 -0.36 0.3 -0.36 0.36 l0.24 0 c0.18 0 0.54 0.36 0.54 0.54 c-0.06 0.06 -0.18 0.06 -0.36 0.06 l-0.06 0 c-0.18 0 -0.42 0.12 -0.78 0.54 c-0.3 0.36 -0.6 0.6 -0.66 0.6 c-0.12 0 -0.48 0.42 -0.48 0.54 l0.06 0.06 l-0.48 0.06 c-0.24 0.12 -0.24 0.18 -0.24 0.42 c0 0.18 -1.08 0.72 -1.38 0.72 c-0.12 0 -0.18 0.06 -0.24 0.18 c0 0.06 -0.48 0.12 -1.02 0.12 l-0.3 0 c-1.08 0 -2.28 -0.3 -3.42 -0.9 c-1.56 -0.78 -4.14 -3.12 -5.1 -4.62 c-0.3 -0.42 -0.54 -0.84 -0.66 -0.96 c-0.24 -0.24 -1.08 -1.74 -1.26 -2.28 c-0.12 -0.3 -0.24 -0.84 -0.3 -1.14 l-0.54 -2.76 l-0.12 -0.78 c0 -0.12 0.06 -0.18 0.18 -0.3 c0.12 -0.06 0.18 -0.18 0.18 -0.36 l0 -0.18 c0 -0.3 0 -0.66 0.06 -0.84 c0 -0.24 0 -0.42 -0.06 -0.48 l-0.06 -0.18 l0.24 -0.96 c0.06 -1.02 0.06 -1.32 0.18 -1.68 l0.12 -0.42 l-0.06 -0.3 c0 -0.12 0.06 -0.24 0.12 -0.3 s0.12 -0.18 0.12 -0.42 l0 -0.24 c0 -0.3 -0.06 -0.54 -0.12 -0.54 s-0.12 -0.06 -0.12 -0.12 l0 -0.06 l0.12 0 c0.18 0 0.36 -0.24 0.36 -0.48 l0 -0.06 c-0.06 -0.12 -0.18 -0.18 -0.18 -0.18 l-0.06 0 l-0.12 -0.06 c0 -0.12 0.06 -0.24 0.18 -0.36 l0.12 -0.12 l0.06 0 l-0.06 0.3 l0.12 -0.06 c0.06 -0.06 0.18 -0.42 0.24 -0.78 c0.06 -0.3 0.12 -0.72 0.18 -0.84 l0.06 -0.18 l-0.06 -0.12 c-0.12 0 -0.18 -0.12 -0.18 -0.12 c0 -0.06 0 -0.12 0.12 -0.12 l0.12 0.06 l0.24 0 l-0.12 -0.3 c0 -0.06 0.06 -0.18 0.18 -0.24 s0.18 -0.24 0.18 -0.3 c0 -0.12 0.12 -0.48 0.3 -0.9 c0.12 -0.42 0.24 -0.84 0.24 -1.08 l-0.06 -0.24 l-0.18 0.06 l-0.06 -0.06 c0 -0.18 0.36 -0.54 0.54 -0.54 c0.12 0 0.24 -0.12 0.3 -0.3 l0.12 -0.42 c0.18 -0.18 0.6 -1.44 0.6 -1.68 c-0.12 0 -0.18 -0.12 -0.18 -0.18 s0.06 -0.06 0.12 -0.06 l0.06 0 c0.06 0 0.12 -0.12 0.18 -0.24 l0.06 -0.18 c0 -0.12 0 -0.12 -0.06 -0.18 l-0.06 -0.12 l0.06 -0.12 l0.12 -0.12 l0.06 0.06 c0 0.06 0.06 0.06 0.12 0.06 l0.06 0 c0.12 0 0.18 -0.06 0.18 -0.12 s-0.12 -0.12 -0.24 -0.18 l-0.18 -0.06 l0.18 0 c0.12 -0.06 0.18 -0.12 0.18 -0.24 l-0.06 -0.24 c0 -0.06 0.06 -0.12 0.12 -0.12 l0.12 0 c0.12 0 0.24 -0.06 0.24 -0.18 l-0.12 -0.12 c-0.06 0 -0.12 -0.06 -0.12 -0.18 s0.12 -0.42 0.42 -0.9 c0.18 -0.36 0.36 -0.6 0.42 -0.6 l-0.06 0.24 l-0.06 0.12 l0.06 0.06 l0.12 0 c0.12 -0.06 0.24 -0.18 0.24 -0.36 c0 -0.06 -0.06 -0.18 -0.18 -0.18 c-0.06 0 -0.06 -0.06 -0.06 -0.12 l0 -0.06 l0.18 0 c0.18 0 0.24 -0.24 0.24 -0.6 l0 -0.18 l0.06 0.12 l0.12 0.06 c0.06 0 0.06 0 0.06 -0.12 l0.06 -0.18 l-0.06 -0.18 l0.24 -0.12 c0.24 -0.06 0.42 -0.18 0.54 -0.48 c0.06 -0.18 0.24 -0.48 0.42 -0.6 l0.12 -0.18 c0 -0.06 0 -0.12 -0.12 -0.18 l-0.12 -0.06 l0.12 0 c0.12 0 0.24 0 0.24 -0.06 s0.06 -0.18 0.18 -0.3 s0.36 -0.54 0.54 -0.84 l0.54 -0.78 l-0.06 -0.18 c0 -0.06 0 -0.06 0.06 -0.06 l0.12 -0.06 l0 -0.12 l0.12 -0.24 c0.12 -0.06 0.12 -0.12 0.12 -0.18 l-0.06 -0.12 c-0.06 -0.06 -0.12 -0.12 -0.12 -0.18 c0 -0.24 0.3 -0.54 0.54 -0.54 c0.12 0 0.42 -0.12 0.6 -0.3 s0.24 -0.24 0.24 -0.3 l-0.24 -0.06 c-0.12 0 -0.24 -0.06 -0.24 -0.12 l0.3 -0.3 c0.24 -0.24 0.36 -0.3 0.42 -0.3 l0.06 0 l-0.3 0.54 c0.12 0 0.6 -0.54 1.26 -1.38 l0.48 -0.48 c0.12 -0.12 0.18 -0.18 0.18 -0.24 l-0.18 -0.12 c-0.12 -0.06 -0.24 -0.18 -0.24 -0.3 s0.06 -0.18 0.18 -0.24 c0.06 0 0.3 -0.3 0.54 -0.66 c0.24 -0.24 0.42 -0.48 0.54 -0.48 c0.06 0 0.06 0 0.06 -0.06 l0 -0.06 c0 -0.12 0.06 -0.24 0.18 -0.36 l0.18 -0.24 c0.06 0 0.06 0.12 0.06 0.3 l0 0.18 c0 0.06 0 0.12 0.06 0.12 l0.36 -0.18 l-0.12 -0.06 c-0.12 0 -0.12 -0.06 -0.12 -0.12 c0 -0.3 0.3 -0.78 0.78 -1.32 c2.16 -2.34 4.08 -3.72 6.12 -4.62 c0.18 -0.06 0.3 -0.12 0.3 -0.18 l-0.24 -0.18 l0.3 0.06 l0.18 -0.06 c0.06 -0.18 1.14 -0.3 1.92 -0.3 l0.6 0.06 c2.04 0.54 3.66 0.84 4.68 2.82 l0.78 1.56 c0.3 0.48 0.42 2.16 0.42 3.24 c0 0.6 -0.06 1.02 -0.12 1.02 s-0.12 0.3 -0.18 0.72 c-0.06 0.36 -0.12 0.78 -0.24 0.9 c-0.06 0.12 -0.12 0.3 -0.12 0.42 s0 0.36 -0.06 0.42 l-0.18 0.6 l-0.42 0.66 c-0.18 0.18 -0.36 0.6 -0.42 0.9 c-0.06 0.54 -0.06 0.54 -0.66 0.54 c-0.54 0 -0.6 0 -0.78 -0.3 c-0.12 -0.18 -0.42 -0.54 -0.72 -0.78 c-0.54 -0.48 -0.54 -0.48 -0.6 -1.38 c-0.06 -0.72 -0.06 -1.26 -0.06 -1.68 c0 -0.48 0 -0.84 0.06 -1.14 l0.6 -2.16 c0.12 -0.3 0.12 -0.6 0.12 -0.84 s0 -0.42 -0.06 -0.6 c-0.12 -0.18 -0.18 -0.3 -0.48 -0.3 l-0.6 0.06 c-0.48 0.06 -1.08 0.12 -1.26 0.24 l-0.84 0.36 c-0.78 0.36 -1.98 1.08 -2.4 1.5 c-0.18 0.24 -0.54 0.54 -0.78 0.72 c-0.54 0.3 -1.56 1.44 -1.56 1.62 l0 0.06 c0 0.06 -0.12 0.12 -0.24 0.18 s-0.24 0.18 -0.24 0.24 l0 0.06 c0 0.12 -0.06 0.12 -0.12 0.12 l-0.06 0 c-0.06 0 -0.12 0.06 -0.12 0.12 c-0.06 0.3 -0.72 1.14 -0.96 1.14 c-0.12 0 -0.84 0.84 -0.84 1.02 c-0.06 0.18 -0.42 0.78 -0.78 1.2 c-0.24 0.18 -0.54 0.54 -0.66 0.66 c-0.18 0.18 -0.42 0.3 -0.54 0.36 l-0.3 0 c-0.06 0 -0.12 0.12 -0.18 0.3 c0 0.12 -0.12 0.24 -0.18 0.24 c-0.18 0 -0.6 0.42 -0.6 0.6 c0 0.06 0.06 0.06 0.12 0.06 c0.18 0 0.36 -0.06 0.42 -0.18 c0.06 -0.24 0.24 -0.36 0.42 -0.36 l0.06 0 l-0.12 0.06 c-0.06 0.06 -0.06 0.12 -0.06 0.24 l0 0.18 c0 0.12 -0.12 0.3 -0.3 0.3 l-0.18 -0.06 l0.12 0.36 c0 0.06 -0.06 0.12 -0.12 0.18 s-0.18 0.18 -0.18 0.3 c-0.06 0.12 -0.12 0.18 -0.18 0.18 l-0.06 0 c-0.06 0 -0.06 0 -0.06 0.06 l0 0.06 c0 0.3 -0.42 0.9 -0.66 0.9 c-0.12 0 -0.24 0.06 -0.24 0.12 l0 0.3 c0 0.06 -0.06 0.12 -0.24 0.18 l-0.12 0 l0.06 -0.06 c0.06 -0.06 0.12 -0.18 0.12 -0.3 c0 -0.18 0.24 -0.54 0.48 -0.6 c0.06 -0.06 0.06 -0.12 0.06 -0.18 l0.18 -0.48 l0.12 -0.24 l-0.24 0.06 l-0.12 0 c-0.06 0 -0.12 0 -0.12 0.06 l0.06 0.18 c0 0.12 -0.06 0.3 -0.12 0.36 l-0.48 0.66 c-0.12 0.24 -0.3 0.42 -0.48 0.42 c-0.06 0 -0.12 0.06 -0.12 0.12 l0 0.18 l-0.06 0.12 c-0.06 0.06 -0.12 0.06 -0.12 0.12 l0.06 0.24 c0 0.18 -0.18 0.42 -0.3 0.42 c-0.06 0 -0.06 -0.06 -0.06 -0.12 l0 -0.18 l-0.12 0.06 c-0.06 0.06 -0.12 0.12 -0.12 0.18 l0.06 0.06 c0.12 0 0.12 0.06 0.12 0.18 c0 0.06 -0.06 0.24 -0.24 0.54 l-0.24 0.48 l-0.12 0.3 c-0.12 0.06 -0.18 0.24 -0.18 0.3 l0.06 0.12 c0.06 0 0.12 -0.12 0.24 -0.24 l0.24 -0.3 l0 0.18 c0 0.12 -0.06 0.3 -0.12 0.36 c-0.06 0 -0.12 0.06 -0.12 0.12 l0.06 0.36 l-0.06 0.3 l-0.18 0.06 c-0.06 0 -0.24 0.12 -0.36 0.3 l-0.24 0.3 l0.12 -0.36 c0.12 -0.24 0.18 -0.48 0.18 -0.54 c-0.06 0 -0.12 0.06 -0.18 0.18 c0 0.12 -0.12 0.36 -0.24 0.54 c-0.06 0.12 -0.12 0.24 -0.12 0.36 s0.06 0.18 0.24 0.18 c0.06 0 0.12 0 0.12 0.12 l-0.06 0.24 c-0.12 0.3 -0.36 0.6 -0.54 0.6 c-0.06 0 -0.12 0.12 -0.12 0.24 s-0.12 0.36 -0.24 0.6 c-0.12 0.18 -0.18 0.3 -0.18 0.42 l0.06 0.18 c0 0.3 -0.42 1.26 -0.6 1.26 c-0.06 0 -0.06 0 -0.06 0.06 l0 0.18 c0 0.12 -0.06 0.24 -0.12 0.36 c-0.12 0.18 -0.24 0.54 -0.3 0.84 c-0.06 0.42 -0.18 0.54 -0.42 0.54 l-0.24 0 c0 0.06 0.06 0.12 0.18 0.18 c0.06 0.12 0.12 0.18 0.12 0.3 s-0.06 0.3 -0.24 0.72 c-0.36 1.02 -0.6 1.68 -0.78 2.58 c-0.12 0.36 -0.24 0.66 -0.3 0.66 s-0.06 0.18 -0.06 0.3 c0 0.18 0 0.36 -0.06 0.36 c-0.06 0.06 -0.06 0.24 -0.06 0.42 s-0.06 0.42 -0.12 0.48 s-0.06 0.12 -0.06 0.24 l0 0.18 c0 0.18 -0.06 0.36 -0.12 0.42 s-0.06 0.18 -0.06 0.36 l-0.12 1.02 l-0.18 0.9 l0.06 0.12 c0.06 0 0.12 0 0.18 -0.12 l0.12 -0.18 l0 0.3 l-0.12 0.72 c0 0.18 -0.06 0.3 -0.12 0.3 s-0.06 -0.06 -0.06 -0.12 l0.06 -0.36 l-0.06 0 l-0.12 0.18 c-0.12 0.12 -0.18 0.24 -0.18 0.36 s0.12 0.18 0.24 0.18 s0.18 0.12 0.18 0.36 c-0.06 0.18 -0.06 0.54 -0.06 0.84 l-0.12 0.84 l0 0.06 c0 0.06 -0.06 0.06 -0.12 0.12 c-0.06 0 -0.06 0.06 -0.06 0.12 s0 0.18 0.12 0.3 l0.12 0.24 l-0.18 0.12 l0.06 0.06 c0.06 0.06 0.18 0.54 0.24 1.08 c0.06 0.6 0.3 1.26 0.6 2.04 c0.66 1.38 0.84 1.68 1.26 2.1 c0.36 0.24 0.48 0.3 1.74 0.36 c1.32 0 1.32 0 2.1 -0.42 c0.42 -0.24 0.9 -0.42 0.96 -0.42 c0.12 0 0.24 -0.12 0.3 -0.18 s0.12 -0.12 0.18 -0.12 l0.06 0 c0.06 0 0.12 0 0.12 -0.06 s0.06 -0.12 0.12 -0.12 c0.12 0 0.24 -0.12 0.24 -0.18 c0 -0.12 0.12 -0.18 0.24 -0.18 c0.06 0 0.12 -0.06 0.12 -0.12 l-0.06 -0.12 l0.6 0 c0 -0.06 0.18 -0.36 0.42 -0.6 c0.24 -0.3 0.36 -0.6 0.36 -0.66 l0.06 -0.24 c0.12 -0.06 0.18 -0.24 0.18 -0.3 l0 -0.12 l0.12 0 c0.06 0 0.18 -0.06 0.3 -0.18 l0.36 -0.18 l0.06 0 l0 -0.06 c0 -0.12 0.06 -0.18 0.12 -0.18 l0.06 0 s0.06 -0.06 0.06 -0.18 s0 -0.18 -0.06 -0.18 l-0.48 0.42 l0.18 -0.24 c0.18 -0.24 0.36 -0.36 0.48 -0.36 c0.06 0 0.12 0.06 0.12 0.18 s0 0.12 0.06 0.12 l0.24 -0.12 l0.12 0.06 c0.06 0 0.06 0 0.06 -0.06 l0 -0.06 c0 -0.18 0.24 -0.6 0.6 -1.02 l0.12 -0.3 l-0.06 -0.12 c0 -0.18 0.42 -0.72 0.6 -0.72 l0.06 0 c0.06 0 0.06 -0.06 0.06 -0.12 l0 -0.06 c0 -0.06 0 -0.06 0.06 -0.06 c0.12 0 1.32 -1.26 1.32 -1.38 s0.54 -0.72 0.66 -0.72 c0.06 0 0.18 -0.18 0.3 -0.42 s0.42 -0.66 0.66 -0.96 c0.24 -0.36 0.36 -0.72 0.36 -0.9 c0 -0.06 -0.06 -0.12 -0.12 -0.12 s-0.06 0 -0.06 -0.06 l0.06 -0.12 l0.12 -0.12 c0.06 0 0.06 0 0.12 0.12 c0 0.06 0.06 0.12 0.12 0.12 l0.24 -0.18 c0.18 -0.18 0.36 -0.36 0.42 -0.54 l0.06 -0.18 l-0.18 0.18 l-0.24 0.12 l-0.06 0 l0.12 -0.24 c0.12 -0.12 0.24 -0.3 0.24 -0.42 c0 -0.06 0.06 -0.12 0.18 -0.12 c0.06 0 0.12 0.06 0.12 0.12 l0 0.06 l0.06 0.06 c0.06 0 0.18 -0.12 0.24 -0.24 c0 -0.12 0.12 -0.3 0.24 -0.42 c0.06 -0.12 0.12 -0.18 0.18 -0.18 l0.12 0.12 l0.12 0.06 l-0.06 -0.24 c0 -0.3 0.36 -0.9 0.54 -0.9 l0.06 0 c0.06 0 0.18 -0.12 0.3 -0.3 l0.18 -0.42 l-0.06 -0.12 c0 -0.12 0.06 -0.18 0.18 -0.36 l0.24 -0.3 l0 0.48 l0.06 -0.06 c0.06 0 0.06 -0.12 0.06 -0.18 l0 -0.36 c0 -0.12 0.06 -0.18 0.24 -0.3 s0.3 -0.18 0.3 -0.24 c0 -0.3 0.66 -1.38 0.78 -1.38 l0.36 0 c0.12 0 0.18 -0.12 0.18 -0.3 l0 -0.3 c0 -0.12 0.06 -0.24 0.12 -0.3 s0.12 -0.12 0.12 -0.18 l0 -0.06 l0.48 -0.9 c0.18 -0.36 0.36 -0.72 0.36 -0.84 l0 -0.06 l-0.12 0.12 c-0.06 0.3 -0.78 1.38 -0.96 1.44 l-0.06 0 l-0.06 -0.06 c0 -0.18 0.48 -0.84 1.26 -1.86 c0.24 -0.3 0.54 -0.84 0.6 -1.08 l0.18 -0.54 l0 -0.06 l-0.12 0.06 c-0.12 0.06 -0.36 0.12 -0.6 0.12 c-0.42 0.06 -2.16 0.42 -3.18 0.72 c-0.36 0.12 -0.72 0.24 -0.84 0.24 c-0.18 0.06 -0.54 0.12 -0.84 0.24 c-0.42 0.12 -0.84 0.18 -1.26 0.18 c-0.54 0 -1.08 -0.12 -1.44 -0.3 c-0.3 -0.18 -0.6 -0.42 -0.66 -0.54 s-0.18 -0.24 -0.3 -0.24 c-0.06 0 -0.18 -0.06 -0.18 -0.18 s-0.06 -0.18 -0.12 -0.18 s-0.24 -0.24 -0.36 -0.6 c-0.18 -0.3 -0.36 -0.66 -0.48 -0.72 c-0.12 -0.12 -0.18 -0.24 -0.18 -0.36 c-0.06 -0.12 -0.06 -0.24 -0.12 -0.3 c-0.06 -0.12 -0.12 -0.42 -0.12 -0.72 s0.06 -0.6 0.12 -0.66 c0.12 -0.06 0.48 -0.18 0.9 -0.18 l5.34 -1.08 l1.44 -0.24 l0.12 0 c0.06 0 0.06 0 0.06 -0.06 s0.18 -0.12 0.48 -0.12 l0.24 0 c0.48 0 1.14 -0.12 1.2 -0.3 c0.06 -0.06 0.3 -0.12 0.6 -0.12 s0.6 -0.12 0.72 -0.18 c0.06 -0.06 0.24 -0.12 0.42 -0.12 l0.18 0 c0.24 0 0.48 0 0.54 -0.06 c0.12 -0.12 0.54 -0.18 0.84 -0.18 c0.12 0 0.18 0 0.18 0.06 s0 0.12 0.12 0.12 c0.06 0 0.06 -0.06 0.06 -0.12 l0 -0.06 c0 -0.12 0.12 -0.18 0.48 -0.18 l0.48 0 c0.36 0 0.48 0 0.48 -0.18 c0 -0.12 0.06 -0.18 0.24 -0.18 c0.12 0 0.24 0.06 0.24 0.12 s0.06 0.06 0.18 0.06 c0.12 -0.06 0.12 -0.06 0.12 -0.12 l-0.12 -0.06 l0 -0.06 l0.66 0.06 c0.06 0 0.12 -0.06 0.12 -0.12 l0 -0.12 l0.06 0.12 c0.06 0.06 0.12 0.06 0.24 0.06 s0.18 -0.06 0.18 -0.12 l0 -0.18 c0 -0.06 0.18 -0.12 0.54 -0.18 l0.96 -0.12 c0.18 -0.06 0.48 -0.06 0.66 -0.06 c0.24 0 0.42 -0.06 0.42 -0.12 s0.12 -0.12 0.24 -0.18 l0.24 -0.12 l0 0.12 c0 0.12 0.06 0.18 0.12 0.18 s0.12 -0.06 0.12 -0.18 s0.84 -0.42 1.32 -0.42 l0.18 0 l-0.12 0.12 l-0.06 0.12 l0.12 -0.06 c0.18 -0.06 0.66 -0.12 1.2 -0.12 l0.48 0 c0.36 0 0.54 0.06 0.66 0.12 l0.18 0.12 c0.06 0 0.06 -0.06 0.06 -0.18 c0.06 -0.18 0.12 -0.18 0.36 -0.18 c0.18 0.06 0.24 0.06 0.24 0.12 l-0.3 0.12 c0 0.06 0.06 0.06 0.24 0.06 c0.12 0 0.24 -0.06 0.24 -0.12 l0 -0.06 c0 -0.12 0.18 -0.24 0.42 -0.24 s0.54 0.12 0.66 0.3 c0.12 0.12 0.6 0.18 1.14 0.24 c0.18 0 0.36 0.06 0.36 0.12 l0.54 0.6 c0.3 0.24 0.54 0.54 0.54 0.6 s0.12 0.48 0.36 0.72 l0 0.12 c0 0.06 -0.06 0.12 -0.24 0.18 c-0.24 0.06 -0.36 0.12 -0.36 0.24 l0.12 0.18 l0.36 -0.06 l0 0.12 s0 0.06 0.06 0.06 l0.12 0.06 l-0.06 0.06 c-0.06 0.06 -0.48 0.12 -0.9 0.18 c-0.48 0.06 -0.9 0.12 -0.96 0.18 s-0.42 0.18 -0.72 0.18 c-0.3 0.06 -0.72 0.18 -0.96 0.3 l-0.42 0.06 c-0.06 0 -0.12 0 -0.18 -0.06 l-0.06 -0.12 l-0.12 0.12 c0 0.06 -0.54 0.18 -1.14 0.3 c-0.6 0.06 -1.08 0.12 -1.14 0.18 l-0.3 0 c-0.12 0 -0.12 0.06 -0.12 0.06 c0 0.06 0.24 0.18 0.48 0.18 l0.24 0 l0 0.06 c-0.12 0.12 -0.84 0.3 -1.62 0.36 l-3.06 0.72 c-0.96 0.18 -1.8 0.42 -1.98 0.6 c-0.12 0.06 -0.24 0.12 -0.36 0.12 l-0.12 0 c-0.06 0 -0.12 0 -0.12 0.06 l0 0.06 c0 0.06 0 0.12 0.06 0.12 s0.18 0.12 0.18 0.3 s0.12 0.36 0.18 0.36 c0.42 0.24 0.84 1.26 0.84 1.86 c0 0.18 -0.06 0.36 -0.12 0.42 s-0.06 0.3 -0.06 0.48 l-0.06 0.48 l-0.3 1.02 c-0.06 0.48 -0.18 0.9 -0.24 0.9 s-0.06 0.06 -0.06 0.24 l0 0.18 c0 0.24 -0.06 0.54 -0.12 0.6 l0 0.18 l-0.06 0.9 l-0.06 0.9 c0 0.12 -0.06 0.42 -0.18 0.66 c-0.06 0.18 -0.12 0.36 -0.12 0.54 l0.06 0.36 l-0.12 0.18 c-0.06 0.12 -0.18 0.24 -0.18 0.36 c-0.06 0.12 -0.18 0.24 -0.24 0.24 c-0.12 0 -0.18 0.06 -0.18 0.12 s0.06 0.06 0.12 0.06 s0.12 0.18 0.12 0.42 l0 0.18 c0 0.18 0 0.3 -0.06 0.36 s-0.06 0.18 -0.06 0.3 s0.06 0.18 0.12 0.18 l0.12 -0.06 l0 0.12 c-0.06 0.12 -0.12 0.3 -0.12 0.42 c0 0.06 -0.12 0.18 -0.18 0.18 l-0.06 0 l0.06 0.12 c0.12 0.06 0.18 0.12 0.18 0.18 l-0.06 0.18 c-0.06 0.12 -0.12 0.36 -0.12 0.54 l0 0.18 c0 0.06 0 0.18 -0.06 0.18 l-0.06 0.12 l0.18 0.3 l-0.12 0.24 l-0.12 0.36 l-0.06 0.36 c-0.06 0.12 -0.12 0.48 -0.12 0.78 c-0.06 0.3 -0.12 0.6 -0.18 0.6 s-0.06 0.06 -0.06 0.12 s-0.06 0.24 -0.18 0.3 l-0.12 0.12 l0 0.06 l0.24 -0.06 c0.06 0 0.06 0.06 0.06 0.3 s-0.06 0.66 -0.18 0.9 l-0.12 0.84 l-0.06 0.66 l-0.12 0.48 c-0.06 0.12 -0.06 0.42 -0.06 0.66 l0 0.18 c0 0.18 0 0.3 -0.06 0.3 c-0.06 0.06 -0.12 0.42 -0.12 0.9 c-0.06 0.42 -0.12 0.78 -0.18 0.78 s-0.12 -0.12 -0.12 -0.3 l0.12 -1.5 l0.06 -0.18 l-0.06 0 l-0.18 0.18 l-0.12 0.3 l0 0.06 c0.06 0.06 0.06 0.18 0.06 0.36 c0 0.24 -0.06 0.54 -0.12 0.54 c-0.18 0 -0.3 0.12 -0.3 0.3 l0 0.12 c0.06 0.12 0.12 0.24 0.18 0.24 s0.12 0.06 0.12 0.12 l0 0.06 l-0.06 0 c-0.06 0 -0.06 0 -0.06 0.12 l0 0.12 c0 0.18 0.06 0.24 0.12 0.24 s0.12 -0.06 0.12 -0.24 s0.12 -0.3 0.18 -0.3 s0.06 0.06 0.06 0.18 c-0.06 0.12 -0.06 0.6 -0.12 1.08 c-0.06 0.6 -0.12 1.02 -0.18 1.02 l-0.06 -0.24 c-0.06 -0.18 -0.12 -0.36 -0.18 -0.36 s-0.06 0.06 -0.06 0.18 l0 0.12 c0 0.18 -0.06 0.3 -0.12 0.3 l-0.06 0.06 l0.3 0.24 l0.3 -0.18 l0.06 0.12 l-0.06 0.18 c-0.12 0.12 -0.12 0.3 -0.18 0.36 l0 0.18 c-0.06 0.12 -0.06 0.84 -0.06 1.08 l0 0.12 c0 0.06 0 0.18 -0.06 0.18 c-0.12 0 -0.12 -0.18 -0.12 -0.48 l0.06 -1.32 l-0.36 0.72 l-0.12 0.12 l0.18 0.12 l-0.06 0.18 l-0.06 0.3 c0 0.12 0 0.18 0.12 0.24 c0.06 0 0.06 0.06 0.06 0.12 l-0.12 0.36 c-0.12 0.24 -0.18 0.54 -0.18 0.66 s0 0.18 0.06 0.18 l0.18 -0.24 l0 0.06 l0.12 -0.06 l0.06 -0.12 c0.06 0 0.06 0.12 0.06 0.36 l0 0.24 l-0.18 -0.24 c-0.06 0 -0.12 0.12 -0.12 0.3 l0 0.12 c0 0.12 0 0.24 -0.06 0.24 l-0.06 0 c-0.12 0 -0.12 0.12 -0.12 0.6 c0.06 0.42 0.12 0.6 0.24 0.6 l0.06 0 c0.06 0 0.12 0.12 0.12 0.24 l-0.12 0.24 l-0.06 0 l-0.18 -0.06 c-0.06 0 -0.06 0.24 -0.06 0.78 l0 0.48 c0 0.3 0 0.48 -0.06 0.48 l-0.24 0.12 c-0.06 0.06 -0.12 0.06 -0.24 0.06 z M12 7.68 c0.12 -0.18 0.9 -0.6 1.14 -0.6 l0.06 0 l-0.66 0.42 c-0.24 0.12 -0.48 0.18 -0.54 0.18 z M9.9 9.240000000000002 l-0.06 0 l0.12 -0.18 c0.18 -0.18 0.42 -0.3 0.48 -0.3 c0 0.06 -0.24 0.3 -0.54 0.48 z M8.64 10.439999999999998 l0 -0.06 l0.18 -0.24 l0.12 -0.06 l-0.06 0.12 c-0.12 0.18 -0.18 0.24 -0.24 0.24 z M8.04 12.299999999999997 l0.12 -0.12 l0.12 -0.36 l-0.06 0 l-0.12 0.06 c-0.06 0.06 -0.12 0.24 -0.12 0.36 c0 0.06 0 0.06 0.06 0.06 z M12.36 13.799999999999997 c0.06 0 0.24 -0.12 0.42 -0.3 c0.12 -0.12 0.18 -0.24 0.18 -0.3 c-0.06 0 -0.24 0.12 -0.42 0.3 c-0.12 0.12 -0.24 0.24 -0.24 0.3 l0.06 0 z M6.24 14.04 c0.12 0 0.24 -0.06 0.3 -0.18 l0.12 -0.18 c0 -0.06 -0.06 -0.12 -0.18 -0.12 c-0.06 0 -0.18 0.06 -0.24 0.18 l-0.18 0.24 c0 0.06 0.06 0.06 0.18 0.06 z M11.52 14.520000000000003 l0.12 -0.06 c0.18 -0.06 0.3 -0.24 0.42 -0.36 l0.06 -0.18 c-0.06 0 -0.24 0.12 -0.42 0.36 z M8.34 14.399999999999999 c0.06 0 0.12 -0.06 0.12 -0.12 l0.06 -0.06 l-0.06 -0.06 l-0.12 0.12 l0 0.12 z M5.7 14.880000000000003 c0.06 0 0.12 0 0.12 -0.12 l-0.12 -0.12 c-0.12 0 -0.12 0.06 -0.12 0.12 c0 0.12 0.06 0.12 0.12 0.12 z M10.62 15.420000000000002 c0.12 0 0.66 -0.42 0.72 -0.6 l0 -0.12 c-0.06 0 -0.06 0 -0.18 0.12 c-0.48 0.42 -0.54 0.54 -0.54 0.6 z M4.74 15.659999999999997 l0.06 -0.24 c0 -0.12 0.18 -0.3 0.24 -0.42 l0.06 0 l-0.06 0.24 z M7.62 15.299999999999997 l0.12 -0.12 l0 -0.18 c-0.06 0 -0.12 0.06 -0.12 0.18 l-0.06 0.06 z M7.92 17.1 c0.06 0 0.18 -0.12 0.42 -0.36 c0.3 -0.3 0.48 -0.6 0.48 -0.66 c0 -0.12 0.18 -0.24 0.36 -0.36 s0.3 -0.3 0.3 -0.36 s0 -0.06 -0.06 -0.06 c-0.12 0 -1.2 1.26 -1.38 1.62 z M7.44 15.54 c0.12 0 0.12 -0.06 0.12 -0.12 l-0.18 0 l0 0.06 z M10.5 15.719999999999999 c0 -0.06 0 -0.12 -0.06 -0.18 c-0.06 0 -0.06 0 -0.06 0.12 l0.06 0.06 l0.06 0 z M3.96 16.5 l-0.06 -0.06 l0.3 -0.3 l0 0.12 c-0.06 0.12 -0.12 0.24 -0.24 0.24 z M5.28 18.119999999999997 c0.18 0 0.9 -0.78 0.9 -1.02 c0 -0.06 0.06 -0.12 0.12 -0.12 c0.18 0 0.42 -0.3 0.48 -0.6 l0 -0.24 l-0.06 0.12 c-0.06 0.12 -0.24 0.24 -0.3 0.24 c-0.12 0 -0.24 0.12 -0.3 0.3 c-0.06 0.12 -0.12 0.24 -0.18 0.24 l-0.06 0 c-0.06 0 -0.12 0 -0.12 0.06 l0 0.06 l0.06 0.06 l0.06 0 c0 0.06 -0.12 0.18 -0.3 0.3 c-0.3 0.18 -0.42 0.3 -0.42 0.42 z M9.84 16.86 c0.06 0 0.18 -0.06 0.24 -0.18 c0.12 -0.12 0.12 -0.18 0.12 -0.24 s0 -0.06 -0.12 -0.06 c-0.06 0 -0.06 0 -0.06 0.06 l0 0.12 c0 0.06 -0.06 0.18 -0.18 0.18 l-0.06 0.06 z M7.32 18 l0.18 -0.24 c0.18 -0.24 0.24 -0.36 0.24 -0.42 l-0.36 0.12 c-0.12 0.06 -0.18 0.12 -0.18 0.24 l0 0.12 c0 0.12 0.06 0.18 0.12 0.18 z M8.28 18.36 l0.36 -0.36 c0.18 -0.24 0.36 -0.48 0.36 -0.54 s-0.06 -0.06 -0.06 -0.06 l-0.18 0 c-0.12 0.06 -0.18 0.12 -0.18 0.18 l0 0.06 c0 0.12 -0.06 0.24 -0.12 0.3 c-0.12 0.12 -0.24 0.3 -0.24 0.36 z M3.12 17.82 l-0.12 -0.06 l0.06 -0.12 c0.06 -0.06 0.12 -0.12 0.24 -0.12 l0.06 0.12 c0 0.12 -0.06 0.18 -0.24 0.18 z M6.54 18.9 l0.12 -0.06 c0.12 -0.06 0.24 -0.18 0.3 -0.3 l0.06 -0.18 l-0.06 -0.06 c-0.06 0 -0.24 0.12 -0.36 0.36 z M4.02 20.04 c0.06 0 0.12 -0.06 0.12 -0.12 l0 -0.06 c0 -0.12 0.18 -0.3 0.42 -0.48 l0.42 -0.36 l0 -0.06 c0 -0.06 0.06 -0.06 0.12 -0.12 c0.12 -0.06 0.12 -0.18 0.12 -0.24 c0 -0.12 0 -0.18 -0.06 -0.18 c-0.12 0 -1.14 1.2 -1.14 1.32 c0 0.06 -0.06 0.12 -0.12 0.12 l-0.06 0.06 l0.06 0.06 c0 0.06 0.06 0.06 0.12 0.06 z M7.62 19.259999999999998 c0.06 0 0.12 -0.06 0.24 -0.18 s0.18 -0.3 0.18 -0.42 c0 -0.06 -0.06 -0.12 -0.12 -0.12 s-0.18 0.18 -0.24 0.36 l-0.12 0.3 z M4.14 19.020000000000003 l0.06 -0.12 l-0.06 -0.06 s0 -0.06 -0.06 -0.06 l0 0.12 z M6.12 19.560000000000002 l0.12 -0.12 l0.12 -0.24 l-0.12 -0.06 c-0.06 0.06 -0.18 0.18 -0.18 0.3 c0 0.06 0 0.12 0.06 0.12 z M3.9 22.799999999999997 c0.06 0 0.24 -0.18 0.42 -0.36 c0.12 -0.24 0.3 -0.6 0.48 -0.84 l0.54 -0.84 c0.18 -0.18 0.3 -0.42 0.3 -0.54 l-0.06 -0.18 l-0.24 0.18 c-0.06 0.12 -0.18 0.18 -0.24 0.18 l-0.06 0 c-0.06 0 -0.12 0.06 -0.24 0.18 l-0.06 0.18 l0.24 -0.06 s0.06 0 0.06 0.06 c0 0.12 -0.12 0.36 -0.36 0.6 c-0.18 0.18 -0.24 0.24 -0.3 0.24 l-0.06 -0.24 l-0.12 0.18 c0 0.12 0 0.24 0.06 0.3 l0.06 0.12 l-0.12 0.18 c-0.3 0.3 -0.42 0.48 -0.42 0.6 z M6.42 21.060000000000002 l0.06 -0.18 c0.06 -0.06 0.12 -0.12 0.18 -0.12 s0.12 0 0.18 0.06 l0 0.06 l-0.18 0.12 z M1.5 21.42 l0.12 -0.12 c0 -0.06 0 -0.12 -0.12 -0.12 l-0.12 0.12 c0.06 0.12 0.06 0.12 0.12 0.12 z M2.94 22.14 c0.06 -0.06 0.06 -0.24 0.06 -0.36 c0 -0.18 0 -0.24 -0.06 -0.24 l-0.06 0 l-0.12 0.06 c-0.18 0.12 -0.3 0.3 -0.3 0.42 l0.24 0 c0.06 0 0.12 0 0.12 0.06 s0.06 0.06 0.12 0.06 z M3.42 21.96 c0.06 0 0.12 -0.12 0.12 -0.18 l-0.12 -0.18 c-0.06 0 -0.12 0.06 -0.12 0.18 z M5.4 22.259999999999998 c0.06 0 0.18 -0.12 0.18 -0.18 s0 -0.12 -0.06 -0.12 l-0.06 0 c-0.06 0 -0.18 0.12 -0.18 0.18 s0 0.12 0.06 0.12 l0.06 0 z M0.24 22.259999999999998 l-0.06 -0.06 l0 -0.12 l0.12 0.06 z M34.02 22.86 l-0.06 0 s-0.06 0 -0.06 -0.06 s0 -0.12 0.06 -0.12 c0.06 0.06 0.06 0.12 0.06 0.18 z M36.48 23.1 l-0.06 0 s-0.06 0 -0.06 -0.06 s0 -0.12 0.06 -0.12 c0.06 0.06 0.06 0.12 0.06 0.18 z M1.98 23.4 c0.06 0 0.12 -0.12 0.18 -0.18 l0 -0.3 s-0.06 0 -0.12 0.12 c-0.12 0.12 -0.18 0.18 -0.18 0.24 s0.06 0.12 0.12 0.12 z M1.44 27 c0.12 0 0.18 -0.06 0.24 -0.18 l0.3 -0.48 c0.12 -0.12 0.12 -0.3 0.12 -0.36 l-0.06 -0.12 l0.12 0 c0.06 0 0.12 -0.12 0.24 -0.24 l0.24 -0.54 c0.12 -0.12 0.24 -0.42 0.3 -0.6 l0.48 -0.9 c0.18 -0.24 0.3 -0.48 0.3 -0.6 c-0.06 0 -0.18 0.18 -0.36 0.42 c-0.12 0.24 -0.3 0.48 -0.42 0.54 c-0.06 0 -0.12 0.06 -0.12 0.18 l0 0.06 c0 0.3 -0.54 1.14 -0.72 1.14 l-0.06 -0.06 c-0.12 0 -0.3 0.24 -0.3 0.42 l0 0.18 c0 0.24 -0.12 0.66 -0.24 0.66 l0 -0.18 c0 -0.06 0 -0.18 -0.06 -0.18 s-0.12 0.12 -0.12 0.18 c0 0.12 -0.06 0.24 -0.12 0.3 l-0.12 0.12 c0 0.06 0.06 0.12 0.12 0.18 z M30.54 23.64 c0.06 0 0.06 -0.06 0.12 -0.12 l0 -0.06 c0 -0.06 0 -0.06 -0.06 -0.06 s-0.12 0.06 -0.12 0.12 z M30.18 24 l0.18 -0.06 l-0.18 -0.06 c-0.06 0 -0.12 0 -0.18 0.06 c0 0 0.06 0.06 0.18 0.06 z M29.22 24.119999999999997 l0.48 -0.12 l0.06 -0.12 l-0.18 0 l-0.36 0.18 l0 0.06 z M27 24.78 c0.12 -0.06 0.18 -0.12 0.18 -0.18 s0 -0.06 -0.06 -0.06 s-0.12 0 -0.18 0.06 l-0.18 0.12 l0 0.06 l0.24 0 z M25.8 24.96 l0.06 -0.06 l0 -0.06 c0 -0.06 0 -0.12 -0.06 -0.12 l-0.12 0.12 c0 0.06 0 0.12 0.12 0.12 z M26.34 24.96 l0 -0.06 l-0.12 -0.06 l-0.18 0.06 c0 0.06 0.06 0.06 0.18 0.06 l0.12 0 z M1.32 25.08 c0.06 0 0.12 0 0.12 -0.06 l-0.12 -0.12 l-0.12 0 l0 0.06 c0 0.06 0.06 0.12 0.12 0.12 z M3.78 25.200000000000003 l0.06 -0.12 c0.06 -0.06 0.12 -0.12 0.18 -0.12 l0 0.06 c0 0.06 -0.06 0.06 -0.12 0.12 z M0.9 25.32 l0.06 -0.12 l-0.06 -0.12 c0 -0.06 0 -0.06 -0.06 -0.06 l0 0.12 c0 0.12 0.06 0.18 0.06 0.18 z M0.6 25.439999999999998 c0.12 0 0.12 -0.06 0.12 -0.12 s0 -0.12 -0.06 -0.12 l-0.12 0.12 c0 0.06 0 0.12 0.06 0.12 z M0.48 25.799999999999997 l0.06 -0.12 l-0.12 -0.06 l0 0.06 c0 0.12 0.06 0.12 0.06 0.12 z M37.92 26.04 l0.12 -0.06 l0.06 -0.24 l-0.06 0 c-0.06 0 -0.06 0.06 -0.12 0.18 l0 0.12 z M3.12 26.28 l0.06 -0.3 l0.24 -0.24 l0 0.06 c0 0.12 -0.18 0.48 -0.3 0.48 z M0.3 26.159999999999997 l0.06 -0.12 l-0.12 -0.06 s-0.06 0 -0.06 0.06 c0.06 0.12 0.06 0.12 0.12 0.12 z M35.4 26.4 c0.06 0 0.12 0 0.12 -0.06 l-0.18 -0.12 l-0.12 0.06 c0.06 0.06 0.12 0.12 0.18 0.12 z M2.46 26.4 c0.12 0 0.18 0 0.18 -0.06 l-0.24 0 l-0.06 0.06 l0.12 0 z M35.76 26.82 c0.12 0 0.24 -0.06 0.24 -0.12 l0 -0.06 c0 -0.06 0 -0.06 -0.06 -0.06 l-0.36 0.06 l0 0.12 c0.06 0.06 0.12 0.06 0.18 0.06 z M33.24 27.119999999999997 l0 -0.06 l-0.18 0 l0 0.06 l0.18 0 z M0.84 28.08 l0.24 -0.18 c0.12 -0.12 0.18 -0.36 0.18 -0.48 l0 -0.06 c0 -0.12 0 -0.12 -0.06 -0.12 s-0.12 0.06 -0.18 0.18 c-0.18 0.18 -0.24 0.42 -0.24 0.54 c0 0.06 0 0.12 0.06 0.12 z M-0.48 27.54 c0.06 0 0.12 -0.12 0.12 -0.18 s-0.06 -0.12 -0.18 -0.12 c-0.06 0 -0.06 0.12 -0.06 0.24 l0.06 0.06 l0.06 0 z M31.08 27.479999999999997 l0 -0.06 l-0.18 0 c0 0.06 0 0.06 0.12 0.06 l0.06 0 z M-1.86 27.72 l0.06 -0.12 l-0.06 -0.06 c-0.06 0 -0.06 0 -0.06 0.06 z M31.56 28.02 c0.12 0 0.24 -0.06 0.24 -0.12 l-0.24 0 c-0.18 0 -0.24 0 -0.24 0.06 s0.06 0.06 0.12 0.06 l0.12 0 z M30.18 28.32 c0.18 0 0.36 0 0.54 -0.06 c0.12 0 0.24 -0.12 0.3 -0.18 c0 -0.12 0 -0.12 -0.06 -0.12 l-0.3 0.06 l-0.6 0.3 l0.12 0 z M29.4 28.5 l0.24 -0.06 c0 -0.06 -0.12 -0.06 -0.24 -0.12 l-0.18 0 l-0.06 0.06 c0 0.06 0.12 0.12 0.24 0.12 z M28.92 28.62 c0.12 0 0.12 -0.06 0.12 -0.12 s0 -0.12 -0.06 -0.12 l-0.12 0.12 c0 0.06 0 0.12 0.06 0.12 z M-0.36 30.78 c0.06 0 0.24 -0.3 0.42 -0.72 c0.3 -0.6 0.42 -0.84 0.42 -1.02 l-0.12 -0.06 c0 -0.06 0.06 -0.12 0.12 -0.18 c0.24 -0.12 0.3 -0.18 0.3 -0.3 c0 -0.06 -0.06 -0.12 -0.24 -0.12 c-0.24 0.06 -0.36 0.12 -0.36 0.3 l0.06 0.42 c0 0.06 -0.06 0.12 -0.18 0.18 s-0.18 0.12 -0.18 0.18 l0 0.18 l-0.12 0.48 l-0.18 0.54 z M-0.6 28.8 c0.06 0 0.12 -0.06 0.12 -0.18 s-0.12 -0.12 -0.3 -0.12 c-0.12 0 -0.18 0 -0.18 0.06 l0.12 0.12 z M28.08 28.86 l0.18 -0.06 c0 -0.06 -0.06 -0.12 -0.18 -0.12 l-0.06 0 s-0.06 0 -0.06 0.06 l0 0.06 z M27.6 28.86 l0.12 -0.06 l0 -0.06 l-0.24 0 l-0.06 0.06 z M25.74 29.4 c0.06 -0.06 0.24 -0.06 0.36 -0.06 c0.18 0 0.24 -0.06 0.24 -0.12 l-0.12 -0.06 l-0.3 0 c-0.24 0.06 -0.42 0.12 -0.42 0.18 s0.06 0.06 0.12 0.06 l0.12 0 z M1.02 29.7 l0 -0.42 l-0.12 0 l-0.06 0.12 l0.06 0.18 z M0.24 31.08 c0.12 0 0.42 -0.18 0.6 -0.36 l0.06 -0.12 l-0.06 -0.06 c-0.12 0 -0.6 0.42 -0.6 0.54 z M-0.48 31.14 c0.06 0 0.12 -0.06 0.12 -0.12 l-0.06 -0.12 c-0.06 0 -0.06 0.06 -0.12 0.12 l0 0.06 z M15.6 32.58 l0.06 -0.12 c0 -0.06 0.12 -0.12 0.12 -0.12 c0.06 0 0.06 0 0.06 0.06 s-0.06 0.06 -0.12 0.12 z M-1.32 32.879999999999995 l0.12 -0.06 c0.12 -0.06 0.18 -0.18 0.18 -0.24 l-0.06 -0.06 c-0.06 0 -0.12 0 -0.12 0.06 c-0.12 0 -0.18 0.12 -0.18 0.24 c0 0.06 0 0.06 0.06 0.06 z M14.34 32.82 c-0.06 0 -0.06 0 -0.06 -0.06 c0.06 -0.06 0.36 -0.18 0.6 -0.18 c0.12 -0.06 0.24 -0.06 0.3 -0.06 l0.06 0.06 c0 0.06 -0.24 0.12 -0.66 0.18 z M20.22 32.82 c0.06 0 0.12 -0.06 0.12 -0.12 l0 -0.06 c0 -0.06 0 -0.06 -0.06 -0.06 s-0.12 0.06 -0.12 0.12 z M-0.24 32.94 c0.06 0 0.12 -0.06 0.12 -0.12 l0 -0.06 c0 -0.06 0 -0.06 -0.06 -0.06 s-0.12 0.06 -0.12 0.12 z M-1.62 33.66 l0.12 -0.12 c0.12 -0.06 0.18 -0.18 0.18 -0.24 s-0.06 -0.06 -0.06 -0.06 l-0.12 0.06 c-0.12 0.12 -0.18 0.24 -0.18 0.3 z M-4.98 34.019999999999996 c-0.06 0 -0.18 0 -0.18 -0.06 s0.06 -0.18 0.18 -0.24 c0 -0.06 0.06 -0.06 0.06 -0.06 c0.06 0 0.06 0.06 0.06 0.18 l0 0.06 c0 0.06 -0.06 0.12 -0.12 0.12 z M-2.22 35.760000000000005 c0.06 0 0.18 -0.3 0.3 -0.6 l0.24 -1.14 l-0.12 0.06 c-0.06 0.06 -0.12 0.12 -0.12 0.18 l0 0.12 l-0.12 0.48 c-0.18 0.3 -0.24 0.6 -0.24 0.78 c0 0.06 0 0.12 0.06 0.12 z M18.66 35.04 c-0.06 0 -0.06 -0.12 -0.06 -0.18 l0 -0.06 c0 -0.06 0.06 -0.12 0.18 -0.12 c0.06 0 0.12 0 0.12 0.06 z M19.32 35.16 c0.06 0 0.12 -0.06 0.12 -0.12 s-0.06 -0.12 -0.12 -0.12 s-0.12 0.06 -0.12 0.12 z M-2.64 37.019999999999996 c0.06 0 0.18 -0.3 0.24 -0.66 l0.06 -0.48 c0 0.06 -0.06 0.12 -0.18 0.24 c-0.06 0.12 -0.18 0.3 -0.18 0.42 l0 0.36 l-0.06 0.12 l0.12 0 z M18.48 36.3 c0 -0.06 0 -0.12 -0.06 -0.12 l0 -0.06 c-0.06 0 -0.06 0.06 -0.06 0.12 s0.06 0.06 0.06 0.06 l0.06 0 z M17.46 36.54 l-0.06 -0.06 c0 -0.12 0.12 -0.24 0.24 -0.24 l0.06 0 l0 0.06 c0 0.06 -0.06 0.12 -0.12 0.18 z M16.26 38.22 c0 -0.12 0.06 -0.18 0.12 -0.24 s0.24 -0.3 0.36 -0.54 s0.3 -0.48 0.36 -0.48 l0.06 0.06 c0 0.12 -0.24 0.42 -0.6 0.96 c-0.12 0.12 -0.24 0.24 -0.3 0.24 z M18.24 41.4 l0.12 -0.12 c0.12 -0.06 0.3 -0.24 0.42 -0.36 c0.06 -0.12 0.18 -0.24 0.18 -0.3 l0.3 -0.36 c0.18 -0.18 0.3 -0.3 0.3 -0.42 l0 -0.06 c0 -0.06 0.06 -0.18 0.18 -0.18 c0.12 -0.06 0.18 -0.18 0.18 -0.24 c0 -0.12 0.06 -0.36 0.24 -0.54 s0.24 -0.3 0.24 -0.36 l-0.06 -0.12 l-0.12 0 c-0.12 0.06 -0.18 0.12 -0.18 0.18 l-0.12 0.3 c-0.24 0.24 -0.48 0.78 -0.48 0.96 c0 0.12 -0.12 0.24 -0.3 0.3 s-0.36 0.18 -0.36 0.3 l0 0.06 c0 0.12 -0.06 0.18 -0.12 0.18 c-0.12 0.06 -0.24 0.24 -0.3 0.48 z M15.66 39.239999999999995 l0.06 -0.12 c0 -0.12 0.06 -0.18 0.06 -0.18 l0.06 0 l-0.06 0.24 z M18.18 39.6 l0.12 -0.12 c0 -0.06 0 -0.12 -0.06 -0.12 c-0.12 0 -0.12 0.06 -0.12 0.12 s0 0.12 0.06 0.12 z M15.84 40.08 c0.06 0 0.12 -0.06 0.12 -0.18 l-0.06 -0.12 l-0.06 0 l-0.12 0.24 z M14.76 41.82 c0.12 0 0.18 -0.06 0.18 -0.12 s-0.12 -0.12 -0.18 -0.12 c-0.12 0 -0.18 0.06 -0.18 0.12 s0.06 0.12 0.18 0.12 z M18.06 41.94 c0.12 0 0.18 -0.12 0.18 -0.18 c-0.06 -0.12 -0.12 -0.18 -0.18 -0.18 s-0.12 0.06 -0.12 0.18 l0 0.06 c0 0.06 0.06 0.12 0.12 0.12 z M18.66 42.18 c0.06 0 0.06 -0.12 0.06 -0.24 l-0.06 -0.24 c-0.06 0 -0.06 0.12 -0.12 0.24 c0 0.12 0.06 0.24 0.12 0.24 z M18.9 42.42 c0.06 0 0.12 -0.12 0.18 -0.3 l0.06 -0.18 l-0.06 -0.06 l-0.06 0 c-0.12 0.06 -0.18 0.24 -0.18 0.42 c0 0.06 0 0.12 0.06 0.12 z M19.14 43.980000000000004 c0.06 0 0.24 -0.18 0.42 -0.42 c0.24 -0.36 0.36 -0.78 0.36 -1.14 l-0.06 -0.3 c-0.06 -0.12 -0.12 -0.12 -0.12 -0.18 c-0.06 0 -0.06 0.06 -0.12 0.12 c0 0.06 0 0.18 0.12 0.24 l0.06 0.06 c0 0.18 -0.36 0.42 -0.72 0.42 c-0.24 0 -0.42 0.12 -0.42 0.18 s0.06 0.06 0.18 0.06 c0.06 0 0.12 0.06 0.12 0.18 l0 0.06 c0 0.06 0.06 0.12 0.12 0.12 c0.12 0 0.12 0 0.12 0.06 l-0.06 0.06 c-0.06 0.06 -0.06 0.18 -0.06 0.3 s0 0.18 0.06 0.18 z M17.88 42.18 l0.12 -0.06 l-0.06 -0.06 l-0.12 0 l0 0.06 z M18.54 42.42 c0.06 0 0.06 -0.06 0.06 -0.06 l0 -0.06 l-0.18 0 c0 0.06 0 0.12 0.12 0.12 z M17.28 43.08 c0.18 0 0.54 -0.54 0.54 -0.72 c0 -0.06 -0.12 -0.06 -0.24 -0.06 c-0.12 0.06 -0.18 0.12 -0.18 0.24 s-0.06 0.24 -0.12 0.3 l-0.12 0.06 z M13.08 43.019999999999996 l0 -0.24 c0 -0.12 0.06 -0.18 0.12 -0.18 l0.06 0 l0.06 0.12 l-0.06 0.12 z M20.22 42.9 c0.06 0 0.06 -0.06 0.06 -0.12 s-0.06 -0.12 -0.18 -0.12 l-0.06 0.06 l0.06 0.06 c0 0.06 0.12 0.12 0.12 0.12 z M20.16 43.14 c0.12 0 0.12 -0.06 0.12 -0.06 l-0.12 -0.06 s-0.06 0 -0.06 0.06 z M18.3 43.44 c0.06 -0.06 0.06 -0.12 0.06 -0.18 l0 -0.06 l-0.12 0 c-0.06 0.06 -0.12 0.12 -0.12 0.18 l0.12 0.06 l0.06 0 z M15.12 46.2 c0.06 0 0.24 -0.18 0.42 -0.42 c0.24 -0.3 0.54 -0.6 0.6 -0.6 l0.12 -0.06 l-0.06 -0.18 l0.24 -0.48 c0.18 -0.18 0.3 -0.42 0.3 -0.48 s0.06 -0.12 0.12 -0.12 s0.12 -0.06 0.12 -0.12 c0 -0.12 0.06 -0.24 0.18 -0.3 l0.12 -0.12 l-0.06 -0.06 c-0.18 0 -0.84 0.66 -0.84 0.84 c0 0.06 -0.12 0.3 -0.36 0.48 c-0.18 0.24 -0.36 0.48 -0.36 0.54 s-0.12 0.24 -0.3 0.48 c-0.18 0.18 -0.3 0.48 -0.3 0.54 z M-6.9 43.739999999999995 c-0.06 0 -0.06 -0.06 -0.06 -0.06 l0 -0.06 c0 -0.06 0.06 -0.12 0.12 -0.12 l0.06 0.12 c0 0.06 -0.06 0.12 -0.12 0.12 z M24.48 44.1 l0.12 -0.18 l-0.12 -0.06 c-0.06 0 -0.12 0.06 -0.12 0.12 c0.06 0.06 0.06 0.12 0.12 0.12 z M16.44 45.06 l0.12 -0.12 c0 -0.06 0 -0.12 -0.06 -0.12 s-0.12 0.06 -0.12 0.12 s0 0.12 0.06 0.12 z M16.98 45.06 c0.06 0 0.12 -0.06 0.12 -0.12 l-0.06 -0.12 c-0.06 0 -0.06 0.06 -0.12 0.12 l0 0.06 z M18.06 45.78 l0.12 -0.36 c0.12 -0.18 0.24 -0.36 0.36 -0.42 l-0.12 0.36 c-0.18 0.3 -0.3 0.42 -0.36 0.42 z M17.04 45.78 c0.06 0 0.12 -0.06 0.18 -0.24 c0 -0.12 -0.06 -0.24 -0.18 -0.3 l-0.12 0 c-0.06 0.06 -0.12 0.12 -0.12 0.18 l0.06 0.18 c0.06 0.12 0.12 0.18 0.18 0.18 z M15.42 47.58 l0.24 -0.12 c0.18 -0.06 0.48 -0.42 0.66 -0.78 c0.18 -0.24 0.3 -0.42 0.3 -0.54 l-0.12 -0.24 l0.12 -0.36 l0 -0.06 l-0.12 0 c-0.12 0 -0.3 0.24 -0.42 0.54 c0 0.12 -0.06 0.18 -0.12 0.18 l-0.06 0 c-0.06 0 -0.18 0.06 -0.24 0.18 l-0.06 0.3 c0 0.06 0 0.06 0.06 0.06 l0.36 0 l-0.42 0.66 z M15.9 45.78 c0.06 0 0.12 -0.06 0.12 -0.12 l0.06 -0.06 l-0.06 -0.06 l-0.18 0.18 z M-3 46.019999999999996 c0 0 0.12 -0.06 0.12 -0.18 l0 -0.06 c0 -0.06 0 -0.12 -0.06 -0.12 s-0.12 0.12 -0.12 0.18 l0 0.06 c0 0.06 0 0.12 0.06 0.12 z M19.62 46.74 c0.18 0 0.3 -0.24 0.3 -0.48 c0 -0.12 -0.12 -0.24 -0.18 -0.24 s-0.06 0.06 -0.06 0.12 l0 0.06 l-0.06 0.18 l-0.12 0.18 z M16.38 46.38 l-0.06 0 l-0.06 -0.12 c0 -0.06 0 -0.06 0.06 -0.06 c0.06 0.06 0.06 0.12 0.06 0.18 z M22.32 46.38 c0.12 0 0.12 0 0.12 -0.06 l-0.18 0 l0 0.06 l0.06 0 z M-3 46.92 l0 -0.48 c0 -0.06 -0.06 -0.06 -0.06 -0.06 l0 0.3 z M14.7 46.86 l0 -0.06 l-0.06 -0.18 l-0.12 -0.06 l0.06 0.12 z M16.5 48 l-0.06 0 c-0.12 -0.06 -0.12 -0.12 -0.12 -0.18 l0.18 0 c0.24 -0.06 0.72 -0.78 0.72 -1.02 l0 -0.06 c-0.06 0 -0.06 -0.06 -0.06 -0.06 l0.12 0 c0.06 0.06 0.12 0.12 0.12 0.18 c0 0.12 -0.12 0.3 -0.36 0.66 s-0.42 0.48 -0.54 0.48 z M15.36 47.4 l0.18 -0.24 l0.06 -0.18 c0 -0.06 -0.06 -0.06 -0.18 -0.06 s-0.18 0.06 -0.18 0.24 c0.06 0.12 0.06 0.24 0.12 0.24 z M19.62 47.22 c0 -0.06 0 -0.12 -0.06 -0.18 c-0.06 0 -0.06 0 -0.06 0.12 c0 0.06 0.06 0.06 0.06 0.06 l0.06 0 z M9.84 47.519999999999996 c0.06 0 0.12 -0.06 0.12 -0.12 l-0.06 -0.12 c-0.06 0 -0.06 0.06 -0.12 0.12 l0 0.06 z M16.62 47.46 l-0.06 0 l-0.06 -0.06 c0 -0.06 0 -0.12 0.06 -0.12 c0.06 0.06 0.06 0.12 0.06 0.18 z M24 47.58 l0.06 -0.12 l-0.12 -0.06 l-0.06 0.12 z M9.12 47.88 l-0.06 -0.06 l0.06 -0.06 c0 -0.06 0.06 -0.12 0.12 -0.12 l0 0.12 z M16.14 47.88 l-0.06 -0.06 l0.06 -0.06 c0 -0.06 0.06 -0.12 0.12 -0.12 l0 0.12 z M9.6 47.88 l0.12 -0.12 c0 -0.06 0 -0.12 -0.06 -0.12 l-0.12 0.06 l0 0.06 c0 0.06 0 0.12 0.06 0.12 z M13.44 48.36 c0.06 0 0.12 -0.06 0.18 -0.18 l0.12 -0.3 l0 -0.06 c0 -0.06 0 -0.06 -0.06 -0.06 c-0.12 0 -0.24 0.18 -0.24 0.36 l0 0.24 z M19.5 48.3 c0 -0.06 0 -0.12 -0.06 -0.18 c-0.06 0 -0.06 0.06 -0.06 0.12 s0.06 0.06 0.06 0.06 l0.06 0 z M15.24 48.42 l0.06 -0.12 l-0.12 -0.06 l0 0.18 l0.06 0 z M14.94 48.480000000000004 l0.12 -0.06 c0 -0.06 -0.06 -0.12 -0.18 -0.12 l0 -0.06 l-0.06 0.06 s-0.06 0 -0.06 0.06 c0.06 0.06 0.12 0.12 0.18 0.12 z M23.64 49.38 c0.06 0 0.06 -0.06 0.12 -0.12 l0.06 -0.42 l-0.06 -0.06 l-0.06 0.12 c-0.06 0.12 -0.06 0.3 -0.06 0.42 l0 0.06 z M14.04 49.32 c0.06 0 0.12 -0.06 0.18 -0.18 l0 -0.3 l-0.18 0.12 l-0.12 0.24 c0 0.06 0.06 0.12 0.12 0.12 z M12.9 49.2 l0 -0.12 c0 -0.06 -0.06 -0.12 -0.12 -0.12 s-0.06 0.06 -0.06 0.12 c0.06 0.06 0.12 0.12 0.18 0.12 z M8.94 49.2 l0.12 -0.06 l-0.06 0 c0 -0.06 -0.06 -0.06 -0.06 -0.06 c-0.06 0 -0.06 0 -0.06 0.06 z M12.36 50.28 l0.06 -0.06 l-0.06 -0.12 c0 -0.12 0 -0.18 0.12 -0.18 c0.18 0 0.3 -0.24 0.3 -0.36 c0 -0.06 0 -0.12 -0.06 -0.18 l-0.06 0 l-0.24 0.12 c-0.12 0.18 -0.24 0.42 -0.24 0.54 s0.06 0.24 0.18 0.24 z M13.38 50.46 l0.3 -0.06 l0.06 -0.06 l-0.06 -0.12 l0.06 -0.06 c0.12 0 0.18 -0.12 0.18 -0.24 s-0.06 -0.24 -0.12 -0.3 l-0.12 -0.06 l-0.06 0 c-0.06 0 -0.18 0.12 -0.3 0.3 s-0.18 0.36 -0.18 0.48 c0 0.06 0.06 0.12 0.12 0.12 l0.12 0 z M23.58 49.8 l0.06 -0.06 s0 -0.12 -0.06 -0.12 l0 -0.06 c-0.06 0 -0.06 0.06 -0.06 0.12 z M13.26 50.4 c0 0 -0.06 0 -0.06 -0.06 s0.42 -0.54 0.48 -0.54 c0 0.12 -0.3 0.6 -0.42 0.6 z M14.46 50.4 c0 0 -0.06 -0.06 -0.06 -0.18 l0 -0.12 s0.06 0 0.06 0.06 l0.06 0.12 z M11.94 50.82 l0.12 -0.12 c0.12 -0.06 0.12 -0.24 0.12 -0.3 c-0.12 -0.12 -0.24 -0.12 -0.3 -0.12 s-0.12 0.06 -0.12 0.18 l0.12 0.3 c0 0.06 0 0.06 0.06 0.06 z M23.4 50.519999999999996 l0.06 -0.06 l0 -0.06 c0 -0.06 0 -0.12 -0.06 -0.12 l-0.12 0.12 c0 0.06 0 0.12 0.12 0.12 z M21.72 50.519999999999996 l0.06 -0.06 l-0.06 -0.18 c-0.06 0 -0.06 0.06 -0.06 0.12 z M11.4 51 l0.18 -0.42 l-0.06 -0.06 c-0.06 0 -0.12 0.12 -0.12 0.24 l-0.06 0.18 z M7.38 50.88 c0.06 0 0.18 -0.06 0.18 -0.12 l0 -0.06 c0 -0.06 -0.06 -0.06 -0.12 -0.12 l-0.24 -0.06 c-0.06 0.06 -0.06 0.06 -0.06 0.18 c0.06 0.12 0.18 0.18 0.24 0.18 z M12.78 51.480000000000004 c0.06 0 0.18 -0.06 0.3 -0.18 l0.06 -0.18 l-0.18 0.12 c-0.12 0.12 -0.24 0.18 -0.24 0.24 l0.06 0 z M23.28 51.6 l0.06 -0.06 c0.06 0 0.12 -0.12 0.12 -0.24 s0 -0.18 -0.06 -0.18 l-0.06 0.12 c-0.06 0.12 -0.06 0.24 -0.06 0.3 l0 0.06 z M11.64 51.480000000000004 c0.06 0 0.06 -0.06 0.12 -0.18 l0 -0.12 l-0.06 0 c-0.06 0.06 -0.12 0.12 -0.12 0.18 z M6.48 51.72 c0.12 0 0.24 -0.06 0.36 -0.24 l0.12 -0.24 l0 -0.06 c-0.06 0 -0.18 0.06 -0.3 0.24 c-0.12 0.12 -0.18 0.24 -0.18 0.3 z M11.34 51.72 l0.12 -0.12 l0 -0.12 c-0.06 0 -0.12 0.06 -0.12 0.12 l-0.06 0.06 z M18.96 51.72 l0.06 -0.12 l-0.12 -0.06 l0 0.06 c0 0.12 0.06 0.12 0.06 0.12 z M11.94 51.72 l-0.06 -0.12 l-0.12 0.06 c0 0.06 0 0.06 0.12 0.06 l0.06 0 z M22.86 51.96 l0.06 -0.12 l-0.06 -0.06 c-0.06 0 -0.06 0 -0.06 0.06 c0 0.12 0.06 0.12 0.06 0.12 z M12.42 52.32 c0.06 0 0.12 -0.06 0.18 -0.12 l0.12 -0.18 c0 -0.06 0 -0.12 -0.06 -0.12 l-0.18 0.06 c-0.12 0 -0.18 0.12 -0.18 0.24 c0 0.06 0.06 0.12 0.12 0.12 z M11.22 52.56 l-0.06 -0.12 l0.06 -0.18 c0.06 0 0.06 -0.06 0.06 -0.12 l0 -0.12 l-0.3 0.48 l0.12 0.06 l0.12 0 z M10.92 52.92 c0.06 0 0.12 -0.06 0.12 -0.12 s0 -0.06 -0.06 -0.06 l-0.3 -0.06 l-0.12 -0.06 c-0.06 0 -0.06 0 -0.06 0.06 c0.06 0.12 0.24 0.24 0.42 0.24 z M18.84 53.46 l0.18 -0.12 c0 -0.12 -0.06 -0.12 -0.12 -0.12 c-0.12 0 -0.18 0 -0.18 0.12 c0 0.06 0.06 0.12 0.12 0.12 z M10.56 53.4 l0 -0.18 l-0.06 0 s-0.06 0 -0.06 0.12 z M18.78 54.78 c0.06 0 0.06 -0.18 0.06 -0.42 c-0.06 -0.24 -0.12 -0.42 -0.18 -0.42 s-0.06 0.06 -0.06 0.24 c0 0.12 0 0.24 0.06 0.42 z M9.66 54.42 l0.3 -0.12 l0.12 -0.12 l-0.06 0 l-0.3 0.12 l-0.12 0.12 l0.06 0 z M9.48 54.72 l0.06 -0.12 l-0.12 -0.06 l0 0.18 l0.06 0 z M8.52 55.26 c0.06 0 0.12 -0.12 0.18 -0.24 l0.12 -0.12 s-0.06 0 -0.12 0.12 c-0.18 0.06 -0.24 0.18 -0.24 0.18 z M9.42 55.32 l0.06 -0.06 l0.06 -0.18 l-0.12 -0.06 c-0.06 0 -0.12 0.06 -0.12 0.12 l0 0.12 z M22.68 55.68 c0.12 0 0.24 -0.12 0.3 -0.3 l0 -0.24 l-0.06 0 c-0.12 0.06 -0.36 0.3 -0.36 0.48 c0 0.06 0.06 0.06 0.12 0.06 z M18.54 55.5 c0.12 0 0.12 -0.06 0.12 -0.12 s0 -0.12 -0.06 -0.12 l-0.12 0.12 c0 0.06 0 0.12 0.06 0.12 z M8.4 56.04 l0.24 -0.06 l0.48 -0.3 l0.12 -0.12 l-0.12 -0.12 l-0.06 0 c-0.12 0.06 -0.3 0.12 -0.42 0.3 c-0.18 0.18 -0.24 0.24 -0.24 0.3 z M21.36 55.74 c0.12 0 0.12 -0.06 0.12 -0.06 l-0.12 -0.06 s-0.06 0 -0.06 0.06 z M18.54 56.16 l0.12 -0.06 l0.06 -0.3 l-0.12 -0.06 c-0.06 0 -0.12 0.12 -0.12 0.3 z M18.42 56.58 c0.06 0 0.12 -0.06 0.12 -0.12 l-0.06 -0.12 l-0.12 0.12 c0 0.06 0 0.12 0.06 0.12 z M18.6 57.18 c0 -0.06 0 -0.12 -0.06 -0.18 l-0.06 0 l0 0.06 c0 0.12 0.06 0.12 0.12 0.12 z M22.5 57.3 c0 -0.06 0 -0.12 -0.06 -0.18 l-0.06 0 l0 0.06 c0 0.12 0.06 0.12 0.12 0.12 z M7.14 57.66 c0.12 0 0.12 0 0.12 -0.06 l-0.12 -0.06 l-0.06 0.12 l0.06 0 z M22.68 59.52 l-0.06 -0.06 l0.06 -0.06 c0 -0.12 0.06 -0.12 0.12 -0.12 l0 0.12 z M22.74 60.9 l-0.12 -0.06 l0.06 -0.12 l0.06 0 l0 0.18 z M22.56 61.92 c0 0 -0.06 -0.12 -0.06 -0.3 l0 -0.12 c0 -0.12 0 -0.18 0.06 -0.18 s0.06 0.12 0.06 0.3 s-0.06 0.3 -0.06 0.3 z"></path>
  </g>
</svg>